# xmcd
#
# Track frame offsets:
#	150
#	16500
#	27975
#	42450
#	51750
#	62025
#	75675
#	84825
#	92925
#	104400
#	116925
#	128175
#
# Disc length: 1877 seconds
#
# Revision: 0
# Processed by: cddbd v1.5.2PL0 Copyright (c) Steve Scherf et al.
# Submitted via: EasyCDDAExtractor 16.0.6.1
#
DISCID=9707530c
DTITLE=Λίντα Μαίρη-Χιώτης Μανώλης - Το τελευταίο ηλιοβασίλεμα-Μ. Χιώτης
DYEAR=1900
DGENRE=Λαϊκή
TTITLE0=Λίντα Μαίρη-Χιώτης Μανώλης - Δεν θέλω πια να ξαναρθείς [Μ. Χιώτης]
TTITLE1=Λίντα Μαίρη-Χιώτης Μανώλης - Ξέχασέ με [Μ. Χιώτης]
TTITLE2=Λίντα Μαίρη-Χιώτης Μανώλης - Πού θα πας [Μ. Χιώτης]
TTITLE3=Λίντα Μαίρη-Χιώτης Μανώλης - Φέρε παιδί μου [Μ. Χιώτης-Ηλ. Λυμπερόπουλ
TTITLE3=ος]
TTITLE4=Λίντα Μαίρη-Χιώτης Μανώλης - Γράμματα μού στέλνεις [Μ. Χιώτης-Ν. Δαλέζ
TTITLE4=ιος]
TTITLE5=Λίντα Μαίρη - Εσύ [Μ. Χιώτης]
TTITLE6=Λίντα Μαίρη-Χιώτης Μανώλης - Εσύ είσαι η αιτία [Μ. Χιώτης]
TTITLE7=Λίντα Μαίρη - Κίνδυνος θάνατος [Μ. Χιώτης-Ν. Μουρκάκος]
TTITLE8=Λίντα Μαίρη-Χιώτης Μανώλης - Θλίψη [Μ. Χιώτης]
TTITLE9=Λίντα Μαίρη-Χιώτης Μανώλης - Πού γυρίζεις [Μ. Χιώτης]
TTITLE10=Λίντα Μαίρη - Τσιγγάνα Μαρία [Μ. Χιώτης]
TTITLE11=Λίντα Μαίρη-Χιώτης Μανώλης - Θέλω να φύγω μακριά σου [Μ. Χιώτης]
EXTD=
EXTT0=
EXTT1=
EXTT2=
EXTT3=
EXTT4=
EXTT5=
EXTT6=
EXTT7=
EXTT8=
EXTT9=
EXTT10=
EXTT11=
PLAYORDER=
